# xmcd CD database file
#
# Track frame offsets:
#	150
#	13440
#	28735
#	49400
#	66323
#	90838
#	109118
#	122850
#	143900
#	165673
#	183155
#	204043
#	220623
#	241965
#
# Disc length: 3449 seconds
#
# Revision: 0
# Processed by: cddbd v1.5.1PL0 Copyright (c) Steve Scherf et al.
# Submitted via: CDex 1.51
#
DISCID=c00d770e
DTITLE=ピンク・レディー - ピンク・レディーの不思議な旅
DYEAR=1979
DGENRE=JPop
TTITLE0=オープニングテーマ
TTITLE1=リオの女王
TTITLE2=チャイナ・タウン
TTITLE3=悲しき草原
TTITLE4=空とぶじゅうたんエロチカ
TTITLE5=カルメン･シャワー
TTITLE6=恋愛印象派
TTITLE7=波乗りパイレーツ
TTITLE8=ナイルの赤い月
TTITLE9=女は勝負する
TTITLE10=オリエンタル･フィーリング
TTITLE11=南太平洋
TTITLE12=惑星ハネムーン
TTITLE13=エンディング・テーマ
EXTD=YEAR: 1979
EXTT0=
EXTT1=
EXTT2=
EXTT3=
EXTT4=
EXTT5=
EXTT6=
EXTT7=
EXTT8=
EXTT9=
EXTT10=
EXTT11=
EXTT12=
EXTT13=
PLAYORDER=
